HIERARCHY
ROOT Hips
{
  OFFSET 279.157 85.6768 304.565
  CHANNELS 6 Xposition Yposition Zposition Zrotation Xrotation Yrotation
  JOINT LeftUpLeg
  {
    OFFSET 8.64259 1.95398 -2.38835
    CHANNELS 3 Zrotation Xrotation Yrotation
    JOINT LeftLeg
    {
      OFFSET 43.7702 0 0
      CHANNELS 3 Zrotation Xrotation Yrotation
      JOINT LeftFoot
      {
        OFFSET 40.6238 0 0
        CHANNELS 3 Zrotation Xrotation Yrotation
        JOINT LeftToeBase
        {
          OFFSET 12.7242 0 0
          CHANNELS 3 Zrotation Xrotation Yrotation
          End Site
          {
            OFFSET 0 0 0
          }
        }
      }
    }
  }
  JOINT RightUpLeg
  {
    OFFSET -8.2249 1.95398 -2.59336
    CHANNELS 3 Zrotation Xrotation Yrotation
    JOINT RightLeg
    {
      OFFSET 43.5653 0 0
      CHANNELS 3 Zrotation Xrotation Yrotation
      JOINT RightFoot
      {
        OFFSET 40.6238 0 0
        CHANNELS 3 Zrotation Xrotation Yrotation
        JOINT RightToeBase
        {
          OFFSET 12.7242 0 0
          CHANNELS 3 Zrotation Xrotation Yrotation
          End Site
          {
            OFFSET 0 0 0
          }
        }
      }
    }
  }
  JOINT Spine
  {
    OFFSET 0.165834 0.87714 6.61349
    CHANNELS 3 Zrotation Xrotation Yrotation
    JOINT Spine1
    {
      OFFSET 7.38963 1.71661e-005 0
      CHANNELS 3 Zrotation Xrotation Yrotation
      JOINT Spine2
      {
        OFFSET 11.9445 1.14441e-005 0
        CHANNELS 3 Zrotation Xrotation Yrotation
        JOINT Spine3
        {
          OFFSET 14.7254 4.19617e-005 0
          CHANNELS 3 Zrotation Xrotation Yrotation
          JOINT Spine4
          {
            OFFSET 10.9679 0 0
            CHANNELS 3 Zrotation Xrotation Yrotation
            JOINT RightShoulder
            {
              OFFSET 2.46616 -1.6653 3.69651
              CHANNELS 3 Zrotation Xrotation Yrotation
              JOINT RightArm
              {
                OFFSET 13.0012 0 0
                CHANNELS 3 Zrotation Xrotation Yrotation
                JOINT RightForeArm
                {
                  OFFSET 28.7848 1.52588e-005 0
                  CHANNELS 3 Zrotation Xrotation Yrotation
                  JOINT RightHand
                  {
                    OFFSET 26.5688 1.52588e-005 0
                    CHANNELS 3 Zrotation Xrotation Yrotation
                    End Site
                    {
                      OFFSET 0 0 0
                    }
                  }
                }
              }
            }
            JOINT LeftShoulder
            {
              OFFSET 2.38034 -1.29275 -3.7523
              CHANNELS 3 Zrotation Xrotation Yrotation
              JOINT LeftArm
              {
                OFFSET 16.3182 6.10351e-005 0
                CHANNELS 3 Zrotation Xrotation Yrotation
                JOINT LeftForeArm
                {
                  OFFSET 27.0901 0 0
                  CHANNELS 3 Zrotation Xrotation Yrotation
                  JOINT LeftHand
                  {
                    OFFSET 24.5451 1.52588e-005 0
                    CHANNELS 3 Zrotation Xrotation Yrotation
                    End Site
                    {
                      OFFSET 0 0 0
                    }
                  }
                }
              }
            }
            JOINT Neck
            {
              OFFSET 5.0226 -0.0266342 0
              CHANNELS 3 Zrotation Xrotation Yrotation
              JOINT Head
              {
                OFFSET 6.69364 2.86102e-005 0
                CHANNELS 3 Zrotation Xrotation Yrotation
                End Site
                {
                  OFFSET 0 0 0
                }
              }
            }
          }
        }
      }
    }
  }
}
MOTION
Frames:	15
Frame Time:	0.0416667
42.6397 100.315 -51.6875 99.5014 27.7302 76.949 -175.677 25.9359 83.2971 -22.0657 -1.60415 -2.66509 75.4281 11.9186 0.302713 18.6611 -7.44168 5.48097 171.177 -8.57751 86.3131 -26.2042 -5.37064 -0.802948 73.9997 -7.57417 -2.24739 28.7196 -0.288398 2.38685 2.33422 8.36854 -89.4676 10.1293 4.894 0.640991 -1.53251 4.91746 0.424452 -24.131 4.47467 2.085 -4.11832 4.47467 2.08499 91.7335 -20.0071 -107.25 29.1321 -15.1637 -35.723 -1.03765 -27.3495 -20.9276 -28.745 -0.240581 -10.5787 -87.1037 -45.5587 82.3013 -36.8679 -1.56198 36.3619 -1.38181 -14.765 -14.1634 -5.20086 -0.0286156 -8.31862 -8.9426 4.50211 23.2966 -3.52114 3.12618 -4.74771 
54.321 94.7043 -63.4697 97.657 27.0964 80.6376 -175.3 27.296 84.903 -18.7834 -2.53497 -3.03386 68.6291 5.29868 -4.21692 19.6075 -7.9409 8.4507 168.813 -19.581 84.497 -24.5509 -5.9209 -1.12164 81.3257 -11.9368 -3.57677 41.2575 -4.26629 1.39487 2.26104 8.03213 -89.8552 10.8135 4.56931 -0.126589 -0.849559 4.55929 -0.327999 -23.4454 4.39573 1.25527 -3.43279 4.39575 1.25526 90.2736 -21.3494 -109.929 33.7357 -14.5116 -32.4204 -2.8368 -31.9423 -19.6016 -30.9152 -1.00504 -8.32303 -86.8396 -56.5713 84.4418 -25.4741 4.6211 24.598 -1.00542 -16.7281 -1.84823 2.26486 0.124 -0.537042 -6.36771 6.26116 26.0145 -5.48633 4.15325 -3.56856 
68.3017 93.4761 -75.3261 96.5655 30.8677 76.9333 -171.293 30.7173 79.2336 -36.3453 8.06812 -7.12324 62.99 0.735416 -0.915245 8.67968 -11.9491 1.57457 167.278 -16.2046 78.6993 -40.1842 -5.96959 -3.82218 61.2569 -0.196363 -1.17017 48.6636 -6.40338 5.23943 1.84629 7.60463 -88.9135 11.6352 4.1817 1.73079 -0.0299643 4.25384 1.5448 -22.5958 3.46825 2.90835 -2.58317 3.46824 2.90835 89.6039 -26.0098 -109.215 42.8408 -17.0392 -17.482 3.60281 -25.6262 -14.1244 -27.3535 -0.684113 -8.01161 -87.4129 -56.367 83.6328 -22.9639 6.71691 10.0015 0.808224 -33.9448 0.00143382 9.40453 0.813481 4.3783 -3.63511 6.42488 17.7548 -8.77932 4.71129 -3.93554 
79.5079 93.5697 -84.924 101.027 35.0265 72.7011 -170.867 22.45 75.6627 -47.4474 12.6942 -6.56327 74.955 10.1345 2.00175 9.36385 -12.5712 3.77862 174.535 3.14759 78.1569 -81.4787 -21.7164 -6.40342 54.0541 2.96849 0.968373 18.6066 2.00373 6.77832 1.04215 7.88709 -88.5765 11.0605 2.73482 2.57261 -0.609887 2.84536 2.44976 -23.137 1.83566 3.27516 -3.12438 1.83569 3.27516 89.6943 -27.6231 -108.331 47.9779 -13.5371 -2.33321 6.47916 -26.9739 -9.07961 -19.3375 -0.576694 -10.4409 -88.6165 -55.899 81.8684 -17.7872 8.24231 -11.3056 -0.207838 -21.2841 -4.83922 -2.35404 -0.182302 -9.36369 -0.727091 4.2154 4.94945 -7.83644 3.69955 -4.19799 
88.2234 99.7647 -93.5616 101.547 33.2582 78.847 -171.691 7.71259 81.7341 -35.567 13.8534 -5.48172 70.0345 7.32478 1.91799 14.0566 -9.86286 4.25079 -177.258 26.042 88.3976 -90.9604 -4.86425 -5.31389 61.7637 -1.97602 -3.06768 18.9777 1.98487 6.38005 0.541843 7.99046 -89.3141 10.9029 1.39599 1.21591 -0.767898 1.44815 1.15328 -23.3021 0.966071 1.57918 -3.28942 0.966068 1.57917 89.3818 -28.8971 -108.426 44.8773 -7.3823 2.55447 10.1384 -21.0859 0.424212 -28.0522 -2.29304 0.143162 -88.5368 -55.1556 81.8566 -12.2052 3.18916 -28.3074 4.5192 0.920944 -14.9728 4.14875 -0.40874 -9.71558 -7.80426 3.90635 -1.57951 -5.72523 4.25676 -6.09504 
97.0252 107.716 -102.462 106.068 40.2188 81.8413 -175.139 -2.90161 87.0274 -25.5874 17.3343 0.414049 52.6077 -4.52093 -1.63478 10.6199 -11.914 4.00916 -177.568 32.2358 91.5717 -77.234 -1.02724 -4.70492 69.3691 -5.69051 -3.59977 18.7881 2.53743 4.13006 -0.384441 8.363 -90.4942 10.1492 -0.991541 -0.900819 -1.52172 -1.03022 -0.856307 -24.056 -0.675 -1.15714 -4.04337 -0.674996 -1.15714 87.7954 -28.8265 -111.628 41.2431 -4.67514 11.6191 8.42815 -11.2498 -1.76298 -27.4554 -1.33557 -1.74201 -88.9822 -49.0572 80.0579 -14.9285 1.30631 -39.6618 5.0022 -4.82373 -20.6981 4.58542 -0.79124 -15.8501 -18.1058 3.21443 -4.03268 -2.32535 3.17083 -3.65357 
106.678 109.879 -111.008 106.006 48.5666 84.0393 -172.765 -6.50355 91.0505 -19.655 16.5916 -0.201894 54.5573 -3.19094 -3.70917 14.4895 -10.4491 6.3633 -177.817 34.2001 92.9601 -62.2106 -8.03397 -4.53909 70.8502 -6.35139 -3.64406 19.3127 2.27798 4.574 -0.759736 8.3415 -91.164 10.1673 -2.04479 -2.13828 -1.50362 -2.13688 -2.04625 -24.0309 -1.30785 -2.6537 -4.01825 -1.30787 -2.65372 87.5502 -29.5558 -111.779 41.7383 -5.36062 18.7039 9.84633 -14.0398 -2.02403 -22.1477 -0.190438 -8.0103 -89.3109 -42.8916 78.2022 -20.6678 -0.794899 -53.1135 7.82196 -2.993 -26.5488 1.12382 -0.66319 -22.9686 -18.6829 1.09849 -11.7033 -2.33517 0.824112 -1.00403 
116.779 105.966 -119.703 105.347 56.307 86.5537 -171.722 -8.25428 93.7519 -17.2062 6.07101 0.687237 65.4174 3.44975 -2.69482 15.7405 -11.2896 10.3577 179.253 32.0831 94.7714 -43.4436 -8.06895 -1.57027 69.5688 -5.58465 -2.32406 21.8795 1.75337 3.1407 -1.25847 8.24395 -91.5952 10.3363 -3.23703 -2.88804 -1.33353 -3.36093 -2.74281 -23.8604 -2.22006 -3.72674 -3.84779 -2.22005 -3.72674 88.9386 -29.011 -109.272 43.9869 -4.52089 21.2103 9.31181 -16.4537 -3.02895 -19.3404 -0.377908 -7.87622 -89.6033 -39.2783 76.8225 -24.0731 -3.10599 -63.5725 7.82673 -7.10937 -31.1744 4.39242 -1.24343 -23.6786 -14.9974 -0.83872 -17.6073 -4.45507 -0.689006 -0.0707618 
128.527 99.1737 -129.857 105.574 59.3354 86.2848 -167.565 -19.4266 98.1315 -18.3511 7.33034 1.70688 80.8446 14.2045 1.78625 29.2863 -3.16242 14.3459 177.311 26.0108 96.565 -24.2094 -10.1941 1.29845 69.8136 -6.52489 -2.12682 27.1853 0.464934 0.687353 -1.29876 8.06399 -91.545 10.7021 -3.29857 -2.78066 -0.967368 -3.41769 -2.63281 -23.4975 -2.31097 -3.6429 -3.48489 -2.31099 -3.64291 90.5859 -33.1157 -104.552 40.5859 -2.69605 19.8311 8.2672 -15.1271 -2.61316 -17.0676 -0.167858 -9.71596 -89.9077 -40.618 76.6488 -26.0349 -0.299453 -67.0836 8.51811 -4.77738 -36.659 5.60449 -1.48401 -24.2086 -11.927 -2.85098 -20.7964 -5.57898 -2.11828 -0.670795 
141.227 95.6992 -142.47 101.475 56.3364 89.0725 -165.521 -23.6033 99.9942 -24.2831 7.11829 2.3188 70.4357 7.59333 3.98506 44.4634 6.74863 21.6939 176.305 27.7098 98.3898 -30.2053 -11.2316 2.76008 61.5204 -0.527168 -1.38887 23.8676 1.14155 3.08859 -0.741958 7.26772 -91.7981 12.2963 -2.32672 -3.31502 0.623568 -2.4703 -3.20953 -21.8839 -1.22364 -3.86026 -1.8713 -1.22366 -3.86027 94.13 -31.079 -98.2158 40.0223 2.59033 13.7849 5.83066 -10.9581 0.28393 -13.4342 -0.47421 -5.71923 -90.948 -47.4654 76.7105 -24.9868 8.42156 -47.3266 8.36885 0.320318 -41.1784 3.05692 -1.02282 -24.4841 -10.7929 -3.14513 -9.92974 -10.2824 -2.65692 -0.894883 
150.7 93.4556 -152.783 105.358 50.6724 86.4653 -166.751 -6.16081 100.708 -64.9523 9.82171 3.09532 56.2898 -2.60354 -0.22928 10.2729 -12.5853 5.02615 174.527 27.1337 101.243 -50.9129 -15.8161 2.84648 69.379 -5.93562 -4.91885 19.4322 2.22408 4.65298 -0.169368 7.66375 -91.9414 11.5106 -1.24459 -3.74076 -0.164941 -1.40791 -3.68247 -22.657 -0.063804 -3.94157 -2.6444 -0.0637836 -3.94158 89.5002 -31.3572 -107.22 35.9732 -3.33201 2.79443 7.60478 -10.6889 -2.37468 -17.4175 0.0304442 -9.26227 -91.4026 -52.2574 77.1603 -23.6385 11.0548 -26.4886 7.72092 8.76252 -28.5895 -1.95901 -0.132525 -15.9705 -7.30166 0.844595 3.77302 -6.57452 0.495624 1.52511 
158.703 96.0718 -160.569 104.274 51.4582 84.1959 -174.013 21.9578 97.0709 -91.784 12.4977 4.72138 59.9848 0.721606 3.11593 4.26501 -13.9563 0.18619 174.783 18.9531 99.1316 -49.6547 -15.1788 2.02896 74.0819 -9.6168 -6.28234 20.7005 2.01986 3.80869 0.464496 7.7309 -91.5454 11.4152 0.202647 -3.09291 -0.25945 0.066369 -3.09882 -22.7686 1.12251 -2.88933 -2.75596 1.12251 -2.88933 91.3788 -27.1711 -105.028 36.9706 -0.635106 -9.3984 4.71762 -12.7263 -7.56199 -26.6239 0.35176 -9.86617 -92.0118 -55.3798 76.9966 -23.2869 10.0728 -13.2615 0.237581 -6.04216 -8.79181 10.3359 0.127449 -1.7236 -8.6513 1.46445 11.7386 -6.10457 0.637185 2.26551 
166.759 104.28 -169.057 105.272 47.8317 75.3305 -173.691 31.4423 81.5044 -78.2984 6.83688 2.22652 67.7266 5.55851 4.87515 4.47666 -15.4762 3.34397 176.862 3.00516 92.4649 -34.3044 -18.5328 -3.18343 64.1349 -3.13979 -4.68814 21.0085 1.55023 5.58459 1.39221 8.12201 -90.1515 10.6613 2.70356 -0.538345 -1.00696 2.67719 -0.656879 -23.5656 2.74036 0.299669 -3.55292 2.74037 0.299673 91.3593 -25.9661 -105.507 39.1649 -0.147663 -13.6643 2.70401 -6.90903 -11.7065 -32.1169 0.311047 -7.46151 -90.3518 -52.833 78.803 -23.3028 2.48621 3.3497 2.31939 -12.1341 -9.28703 9.09487 0.524907 1.5336 -16.9845 -0.221034 11.292 -4.09796 -0.168973 1.11025 
174.819 109.159 -177.701 99.5783 38.9313 74.5377 -172.526 34.1267 77.383 -57.8573 11.4722 -2.46583 75.4524 10.3271 2.56071 7.46969 -14.6081 5.40795 177.339 -0.0521257 87.5052 -29.4283 -26.4789 -6.39276 58.334 0.313975 -2.20226 21.0815 1.56714 5.37984 2.19343 8.26436 -88.9519 10.3147 4.84956 1.6612 -1.34799 4.91795 1.44571 -23.9308 4.12599 3.04357 -3.91811 4.126 3.04356 90.4475 -21.2267 -109.674 41.8836 -6.70817 -18.2283 3.10425 -12.9104 -12.2941 -31.5893 0.386653 -9.08681 -90.6196 -49.2914 77.6408 -21.0368 4.28389 22.9486 -0.983252 -13.3192 -17.3133 2.87179 -0.176146 -6.77095 -17.5367 1.71557 12.1429 -4.05319 1.85907 2.08719 
182.706 107.938 -186.437 97.5186 34.5466 74.5611 -172.314 31.7523 75.8572 -39.3203 5.41749 -6.35377 75.02 9.51553 0.697623 14.4304 -10.4058 6.17014 173.765 -2.29841 86.3371 -18.1001 -11.1581 -2.48563 61.7847 -1.35516 -0.0795331 18.0677 3.21506 2.19489 2.41585 8.3382 -88.637 10.145 5.43529 2.24855 -1.51607 5.52891 2.00658 -24.1032 4.5083 3.77991 -4.09052 4.50829 3.7799 89.5056 -20.7933 -111.978 39.4397 -10.116 -23.8318 6.04134 -14.4692 -9.39111 -28.0015 0.550269 -10.741 -89.0786 -46.5838 79.4013 -25.2627 8.78068 30.8439 -4.23921 -15.2642 -13.185 2.36015 -0.208919 -7.23449 -17.303 2.45747 17.184 -3.76475 2.70495 -0.0350982 
